<?xml version="1.0" encoding="UTF-8" standalone="no"?>
<svg
   version="1.1"
   viewBox="0.00 0.00 521.00 732.00"
   id="svg138"
   sodipodi:docname="hydra_logo.svg"
   inkscape:version="1.1.2 (0a00cf5339, 2022-02-04)"
   xmlns:inkscape="http://www.inkscape.org/namespaces/inkscape"
   xmlns:sodipodi="http://sodipodi.sourceforge.net/DTD/sodipodi-0.dtd"
   xmlns="http://www.w3.org/2000/svg"
   xmlns:svg="http://www.w3.org/2000/svg">
  <defs
     id="defs142" />
  <sodipodi:namedview
     id="namedview140"
     pagecolor="#ffffff"
     bordercolor="#000000"
     borderopacity="0.25"
     inkscape:pageshadow="2"
     inkscape:pageopacity="0.0"
     inkscape:pagecheckerboard="0"
     showgrid="false"
     inkscape:zoom="0.69454887"
     inkscape:cx="-115.18268"
     inkscape:cy="483.04736"
     inkscape:window-width="1920"
     inkscape:window-height="1136"
     inkscape:window-x="0"
     inkscape:window-y="27"
     inkscape:window-maximized="1"
     inkscape:current-layer="svg138" />
  <path
     stroke="#849498"
     vector-effect="non-scaling-stroke"
     d="m 160.84,654.52 -19.58,-36.98 a 1.63,1.66 76.3 0 0 -1.46,-0.87 l -26.55,0.08 a 0.52,0.52 0 0 0 -0.45,0.77 q 16.23,28.78 31.91,57.75 c 2,3.69 3.4,6.76 3.36,11.2 q -0.12,13.09 0.1,26.27 0.01,0.55 0.56,0.55 l 25.02,-0.03 q 0.45,0 0.45,-0.45 0.11,-14.18 -0.01,-28.56 c -0.03,-4 2.65,-8.34 4.51,-11.79 q 14.8,-27.53 30.14,-55.07 a 0.45,0.45 0 0 0 -0.39,-0.66 h -26.56 q -0.49,0 -0.72,0.43 l -19.78,37.36 a 0.31,0.31 0 0 1 -0.55,0"
     id="path4"
     style="fill:none;stroke-width:2;stroke-linecap:butt" />
  <path
     stroke="#849498"
     vector-effect="non-scaling-stroke"
     d="m 338.97,680.82 11.97,-0.05 q 0.55,-0.01 0.79,0.5 l 14.91,31.65 q 0.17,0.36 0.57,0.36 l 26.33,-0.03 a 0.34,0.33 77.1 0 0 0.3,-0.48 l -15.02,-31.43 a 1.35,1.41 69.7 0 1 0.92,-1.89 c 4.47,-1.26 10.05,-9.95 11.52,-13.69 6.92,-17.63 -0.68,-41.57 -20.54,-47.11 q -6.86,-1.92 -11.97,-1.93 -22.79,-0.06 -45.66,0.01 a 0.31,0.31 0 0 0 -0.31,0.31 l 0.02,95.6 q 0,0.67 0.68,0.67 l 24.51,-0.11 q 0.44,0 0.44,-0.44 l 0.08,-31.48 q 0.01,-0.46 0.46,-0.46"
     id="path6"
     style="fill:none;stroke-width:2;stroke-linecap:butt" />
  <path
     stroke="#849498"
     vector-effect="non-scaling-stroke"
     d="m 434.22,695.48 26.97,-0.26 q 0.54,0 0.68,0.51 l 4.82,16.97 a 0.76,0.77 82.6 0 0 0.74,0.56 l 25,-0.01 q 0.89,0 0.66,-0.85 l -25.31,-94.85 a 1.36,1.36 0 0 0 -1.33,-1.01 l -35.7,0.24 q -0.55,0 -0.7,0.52 c -9.29,31.82 -19.48,63.54 -27.77,95.62 a 0.45,0.45 0 0 0 0.45,0.56 l 25.4,-0.22 a 0.49,0.48 7.5 0 0 0.45,-0.34 l 4.91,-16.89 q 0.16,-0.54 0.73,-0.55"
     id="path8"
     style="fill:none;stroke-width:2;stroke-linecap:butt" />
  <path
     stroke="#849498"
     vector-effect="non-scaling-stroke"
     d="m 51.47,678.46 28,-0.21 q 0.46,0 0.47,0.47 l 0.29,34.07 q 0.01,0.55 0.56,0.54 l 24.47,-0.15 q 0.43,0 0.43,-0.44 l 0.05,-95.75 a 0.3,0.3 0 0 0 -0.3,-0.3 l -25.32,0.03 a 0.36,0.37 84.8 0 0 -0.36,0.43 q 0.05,0.23 0.17,0.4 a 0.63,0.65 25.3 0 1 0.13,0.39 l 0.12,32.86 q 0,0.98 -0.98,0.98 l -27.74,-0.05 q -0.51,0 -0.51,-0.52 l 0.03,-33.98 q 0,-0.5 -0.5,-0.5 l -24.74,-0.06 q -0.34,0 -0.34,0.34 l 0.08,95.98 a 0.36,0.35 89.2 0 0 0.36,0.36 l 24.61,-0.11 q 0.43,-0.01 0.43,-0.44 l 0.03,-33.77 q 0,-0.57 0.56,-0.57"
     id="path10"
     style="fill:none;stroke-width:2;stroke-linecap:butt" />
  <path
     stroke="#849498"
     vector-effect="non-scaling-stroke"
     d="m 215.41,617.2 0.5,95.74 a 0.36,0.36 0 0 0 0.36,0.36 l 43.61,-0.23 a 36,37.09 89.7 0 0 36.9,-36.19 l -0.12,-24.46 a 36,37.09 89.7 0 0 -37.28,-35.81 l -43.61,0.23 a 0.36,0.36 0 0 0 -0.36,0.36"
     id="path12"
     style="fill:none;stroke-width:2;stroke-linecap:butt" />
  <path
     stroke="#849498"
     vector-effect="non-scaling-stroke"
     d="m 356.5,656.75 c 13.31,-0.1 9.72,-13.9 -0.26,-14.48 q -5.01,-0.29 -17.05,-0.13 -0.42,0.01 -0.42,0.43 l -0.04,13.64 q 0,0.49 0.5,0.5 8.64,0.11 17.27,0.04"
     id="path62"
     style="fill:none;stroke-width:2;stroke-linecap:butt" />
  <path
     stroke="#849498"
     vector-effect="non-scaling-stroke"
     d="m 448.02,643.08 -8.27,28.96 q -0.21,0.73 0.55,0.73 l 15.54,-0.1 q 0.51,0 0.38,-0.49 l -7.93,-29.1 q -0.14,-0.48 -0.27,0"
     id="path64"
     style="fill:none;stroke-width:2;stroke-linecap:butt" />
  <path
     stroke="#849498"
     vector-effect="non-scaling-stroke"
     d="m 270.11,655.93 c -1.2,-15.31 -18.19,-13.57 -28.63,-13.37 q -0.69,0.01 -0.68,0.69 l 0.06,43.72 a 0.35,0.35 0 0 0 0.36,0.35 q 6.61,-0.09 13.28,-0.16 c 7.35,-0.08 14.2,-1.74 15.64,-9.9 q 1.14,-6.47 -0.03,-21.33"
     id="path66"
     style="fill:none;stroke-width:2;stroke-linecap:butt" />
  <g
     id="g3369">
    <path
       stroke="#849498"
       vector-effect="non-scaling-stroke"
       d="M 473.58,407.06 C 493.49,366.2 503.61,324 505.13,279.01 q 1.69,-50.33 -3.01,-100.5 -2.09,-22.3 -4.03,-44.46 a 0.72,0.72 0 0 0 -0.46,-0.61 Q 456.76,117.94 417.62,98.23 380,79.28 355.82,65.91 C 324.22,48.43 292.67,31.25 261.39,12.98 q -0.54,-0.32 -1.09,0.01 -7.99,4.81 -16.29,9.53 -69.22,39.4 -140.13,75.65 C 80.45,110.15 56.42,120.91 32,130.69 q -3.51,1.41 -7.02,2.34 a 0.73,0.74 84.3 0 0 -0.54,0.65 q -2.81,31.01 -5.56,61.98 -3.08,34.74 -1.84,80.84 0.23,8.25 0.75,16.5 c 3.48,54.75 23.88,108.11 53.64,153.82 39.15,60.12 97.63,102.45 162.08,131.96 q 13.26,6.07 24.38,10.06 c 3.5,1.25 5.4,0.16 8.6,-1.16 q 26.09,-10.77 46.48,-20.98 35.28,-17.67 66.36,-41.83 c 40.03,-31.1 71.88,-71.89 94.25,-117.81"
       id="path2"
       style="fill:none;stroke-width:2;stroke-linecap:butt" />
    <path
       stroke="#849498"
       vector-effect="non-scaling-stroke"
       d="m 87.91,325.89 a 0.38,0.37 6.7 0 1 -0.55,0.43 c -3.51,-2.02 -7.77,-3.34 -10.69,-5.22 q -8.98,-5.76 -13.12,-16.35 -0.4,-1.03 0.58,-1.54 c 5.07,-2.66 7.73,-7.66 10.72,-12.36 q 2.7,-4.25 8.81,-7.91 6.48,-3.88 8.21,-6.07 c 1.91,-2.41 5.79,-9.07 8.34,-10.23 q 7.06,-3.19 13.64,-7.24 7.05,-4.34 9.99,-5.23 8.3,-2.52 16.49,0.71 11.69,4.6 24.18,7.38 a 0.56,0.56 0 0 1 0.25,0.96 c -7.42,6.54 -14.34,7.8 -23.6,10.41 q -2.41,0.69 0.1,0.61 1.79,-0.05 4.5,0.16 11.48,0.92 22.46,-2.37 c 19.37,-5.81 38.34,2.62 40.2,24.5 q 0.13,1.48 -0.98,0.5 c -5.99,-5.31 -19.68,-5.73 -27.46,-4.69 q -2.22,0.29 0.01,0.54 c 7.07,0.79 16.55,9.11 21.02,14.35 12.66,14.81 11.43,37.33 4.99,54.39 -8.71,23.12 -27.07,42.17 -47.62,55.3 -16.14,10.32 -33.71,19.77 -47.98,32.62 q -0.34,0.3 -0.05,0.64 l 12.45,14.97 a 0.32,0.32 0 0 0 0.51,-0.03 c 9.97,-14.91 22.5,-23.79 38.91,-34.36 22.16,-14.25 44.36,-31.38 57.53,-54.79 22.07,-39.24 11.51,-86.99 -15.44,-121.25 -11.29,-14.34 -29.03,-25.71 -47.37,-28.04 -9.46,-1.21 -21.91,-0.67 -29.38,5.87 -3.61,3.17 -7.44,8.62 -12.15,10.89 q -6.16,2.96 -13.19,2.95 -0.49,0 -0.63,-0.47 -1.91,-6.35 -5.13,-12.16 c -3.18,-5.71 4.33,-5.24 7.17,-5.28 2.16,-0.04 3.73,-0.58 4.85,-2.28 q 8.86,-13.47 18.43,-24.01 c 1.7,-1.88 3.03,-4.93 0.52,-6.89 q -5.87,-4.58 -12.89,-3.46 c -7.37,1.18 -13.63,8.1 -21.04,6.94 q -2.93,-0.46 -6.59,-0.85 a 2,2.01 10.2 0 0 -2.15,1.5 q -0.97,3.84 1.5,6.84 a 0.94,0.94 0 0 1 -0.64,1.53 q -1.02,0.1 -2.31,-0.66 C 79.7,205 75.79,203.34 73.11,200.23 69.69,196.24 66.02,189.91 66,184.49 a 0.72,0.72 0 0 1 0.71,-0.73 c 4.52,-0.05 6.56,-1.85 9.31,-5.66 5.42,-7.53 11.71,-11.53 20.2,-14.94 3.04,-1.22 4.08,-2.79 5.82,-5.37 2.42,-3.58 6.11,-4.59 9.92,-6.25 8.11,-3.55 15.11,-9.51 23.15,-12.97 q 10.07,-4.33 20.79,-6.8 c 5.95,-1.37 11.45,-3.55 11.9,-10.17 a 1.46,1.46 0 0 1 1.97,-1.27 c 1,0.38 1.87,1.2 2.22,2.29 q 2.64,8.09 -2.22,14.16 c -2.39,2.99 -5.98,6.63 -9.75,6.81 q -6.97,0.35 -11.7,3.39 -4.35,2.8 0.69,1.62 c 11.62,-2.73 23.77,1.29 29.84,11.73 4.62,7.95 -7.99,16.28 -12.45,20.87 a 0.35,0.36 28.2 0 0 0.17,0.59 c 19.44,4.13 34.56,14.15 48.14,28.24 37.41,38.81 75.89,93.71 62.49,150.23 q -3.96,16.69 -13.46,32.97 c -6.43,11.01 -13.83,21.63 -17.85,33.85 -4.95,15.01 -0.69,29.97 5.79,44.02 q 5.87,12.7 10.6,21.78 0.23,0.43 -0.18,0.17 c -3.86,-2.48 -7.77,-5.44 -11.53,-7.48 -10.77,-5.84 -21.82,-9.72 -33.28,-13.92 q -0.57,-0.2 -0.28,0.33 3.17,5.73 6.96,9.82 c 20.64,22.23 48.35,36.09 78.78,39.45 q 28.49,3.15 50.57,-13.46 c 17.72,-13.32 34.48,-28.93 49.42,-45.31 q 2.82,-3.1 3.06,-5.48 c 3.09,-30.31 -21.79,-40.47 -43.65,-51.13 -26.96,-13.15 -47.51,-39.45 -46.78,-70.52 0.21,-8.9 1.94,-17.79 1.9,-26.39 -0.06,-12.51 -1.14,-24.83 9.55,-32.99 q 6.94,-5.29 16.2,-5.93 8.65,-0.59 12.68,0.74 11.66,3.88 21.83,2.84 4.25,-0.44 0.11,-1.5 c -7.61,-1.96 -13.41,-3.91 -18.79,-9.65 q -0.44,-0.47 0.19,-0.61 c 8.57,-1.87 16.47,-4.72 24.79,-7.51 13.15,-4.41 20.86,1.21 31.43,7.54 2.31,1.38 6.64,2.97 8.94,5.41 1.99,2.1 5.81,8.92 9.94,11.33 4.19,2.45 11.03,6.58 13.33,10.15 3.63,5.62 6.28,9.94 11.79,14.02 q 0.75,0.55 0.41,1.41 -6.08,15.53 -22.19,20.05 a 0.6,0.59 81.3 0 1 -0.75,-0.56 q -0.01,-0.65 0.39,-1.4 c 1.92,-3.56 2.68,-7.95 -2.83,-8.49 -3.72,-0.37 -8.17,-0.31 -11.46,-1.89 -3.39,-1.62 -7.58,-4.79 -11.43,-5.49 -3.06,-0.56 -12.65,0.13 -12.65,5.08 q 0.01,2.57 1.04,5 4.44,10.47 8.87,20.95 c 1.89,4.47 4.2,4.11 8.42,4.69 2.14,0.29 3.41,1.35 2.07,3.55 q -3.67,6.03 -5.3,12.7 a 0.99,1 10.9 0 1 -1.12,0.76 q -5.51,-0.8 -10.81,-2.58 C 397.2,355 393.98,350 391.54,345.51 384.95,333.37 378.67,322.09 369.57,311.53 a 0.93,0.93 0 0 0 -1.1,-0.24 c -11.45,5.3 -20.12,16.18 -19.46,28.96 0.93,17.86 15.72,28.93 29.87,37.83 17.59,11.05 43.36,27.27 48.91,48.84 q 0.14,0.53 0.45,0.08 c 31.21,-45.62 46.99,-99.85 48.36,-154.99 q 0.97,-39.18 -2.3,-78.26 -1.56,-18.62 -3,-37.09 -0.07,-0.96 -0.95,-1.37 -18.16,-8.43 -36.51,-16.65 -20.4,-9.14 -63.85,-32.21 Q 315.47,77.49 261.34,47.92 a 1.64,1.62 44.7 0 0 -1.57,0 Q 209,75.7 157.7,103.11 c -39.47,21.08 -69.48,35.31 -105.07,51.31 a 2.25,2.27 80.5 0 0 -1.32,1.83 c -4.64,48.4 -8.88,97.99 -3.44,146.5 q 1.15,10.24 3.12,19.75 13.88,67.09 55.14,122.26 0.81,1.08 0.53,-0.24 -0.21,-1 -0.89,-2.53 c -11.99,-26.91 5.58,-41.75 25.47,-55.37 18.86,-12.92 49.56,-26.15 41.18,-55.61 q -3.41,-11.99 -15.63,-18.29 -1.07,-0.55 -1.71,-1.02 a 0.78,0.78 0 0 0 -1.01,0.06 c -5.4,5.27 -9.11,11.08 -13,17.53 -3.53,5.84 -12.31,25.37 -16.87,27.18 q -6.47,2.58 -13.47,3.08 -0.5,0.03 -0.63,-0.45 -1.59,-5.8 -4.9,-10.82 -1.38,-2.09 -0.17,-3.92 a 0.87,0.87 0 0 1 0.58,-0.37 l 6.99,-1.2 q 0.47,-0.08 0.72,-0.48 2.27,-3.71 3.97,-8.53 3.79,-10.79 5.78,-19.06 c 2.03,-8.49 -9.03,-8.19 -14.08,-6.48 -4.47,1.51 -8.65,5.35 -13.82,6.17 q -1.62,0.26 -6.57,0.7 c -7.65,0.69 -1.65,7.57 -0.69,10.78"
       id="path14"
       style="fill:none;stroke-width:2;stroke-linecap:butt" />
    <path
       stroke="#849498"
       vector-effect="non-scaling-stroke"
       d="m 127.64,155.39 -0.49,-1.37 a 0.27,0.27 0 0 0 -0.34,-0.17 l -2.02,0.72 a 0.77,11.39 70.5 0 0 -10.48,4.53 l 0.15,0.43 a 0.77,11.39 70.5 0 0 11,-3.08 l 2.01,-0.71 a 0.27,0.27 0 0 0 0.17,-0.35"
       id="path16"
       style="fill:none;stroke-width:2;stroke-linecap:butt" />
    <path
       stroke="#849498"
       vector-effect="non-scaling-stroke"
       d="m 141.62,160.94 q -2,0.75 -2.84,1.33 -1.4,0.97 0.31,1.01 12.47,0.27 24.69,2.81 a 0.4,0.4 0 0 0 0.47,-0.32 c 0.48,-2.93 -2.92,-4.94 -5.28,-5.59 q -8.83,-2.44 -17.35,0.76"
       id="path18"
       style="fill:none;stroke-width:2;stroke-linecap:butt" />
    <path
       stroke="#849498"
       vector-effect="non-scaling-stroke"
       d="m 106.86,173.39 q -9.02,3.41 -16.75,9.22 a 0.7,0.7 0 0 0 0.15,1.21 c 9.92,4.1 14.08,-1.9 16.87,-10.17 a 0.21,0.21 0 0 0 -0.27,-0.26"
       id="path20"
       style="fill:none;stroke-width:2;stroke-linecap:butt" />
    <path
       stroke="#849498"
       vector-effect="non-scaling-stroke"
       d="m 395.1,265.08 q 9.93,1.18 18.28,6.6 0.32,0.21 0.54,-0.1 l 0.21,-0.28 q 0.14,-0.2 -0.05,-0.36 c -6,-4.85 -12.81,-8.81 -20.91,-7.56 q -3.53,0.55 -0.07,1.43 0.15,0.04 2,0.27"
       id="path22"
       style="fill:none;stroke-width:2;stroke-linecap:butt" />
    <path
       stroke="#849498"
       vector-effect="non-scaling-stroke"
       d="m 109.2,272.77 c 7.06,-3.71 12.9,-6.54 21.62,-7.94 q 0.15,-0.02 0.25,-0.05 a 0.41,0.4 40.8 0 0 -0.06,-0.79 c -8.59,-1.14 -15.61,2.12 -21.97,7.55 q -0.88,0.75 -0.33,1.19 a 0.45,0.45 0 0 0 0.49,0.04"
       id="path24"
       style="fill:none;stroke-width:2;stroke-linecap:butt" />
    <path
       stroke="#849498"
       vector-effect="non-scaling-stroke"
       d="m 421.71,287.65 c 1.1,3.52 2.7,6.73 5.61,10.48 a 5.34,5.34 0 0 0 5.2,1.97 l 3.76,-0.71 q 3.21,-0.6 0.71,-2.69 -6.74,-5.65 -14.42,-9.77 -1.31,-0.7 -0.86,0.72"
       id="path26"
       style="fill:none;stroke-width:2;stroke-linecap:butt" />
    <path
       stroke="#849498"
       vector-effect="non-scaling-stroke"
       d="m 85.79,300.17 c 10.52,4.05 12.7,-3.53 15.68,-11.09 a 0.4,0.4 0 0 0 -0.5,-0.53 c -5.85,1.95 -10.68,6.61 -15.38,10.11 q -1.27,0.94 0.2,1.51"
       id="path28"
       style="fill:none;stroke-width:2;stroke-linecap:butt" />
    <path
       stroke="#849498"
       vector-effect="non-scaling-stroke"
       d="m 249.27,131.12 q -4.37,-2.04 -14.53,-5.85 c -9.42,-3.53 -15.48,-11.92 -19.94,-20.86 q -0.27,-0.55 -0.54,-0.73 -0.71,-0.46 -0.99,0.34 c -3.13,8.62 -4.35,16.13 -0.28,24.74 0.66,1.37 0.91,3.22 0.49,4.49 -4.71,14.36 -4.18,30.68 10.7,38.39 3.5,1.81 8.02,2.52 12.08,3.54 q 2.13,0.54 2.73,1.82 c 3.4,7.22 8.69,14.69 17.5,15.8 7.44,0.94 14.58,0.06 19.85,-5.25 3.35,-3.37 5.14,-7.52 7.74,-11.1 a 3.21,3.22 10.8 0 1 1.76,-1.2 q 3.68,-0.95 7.63,-2.13 c 14.21,-4.25 20.07,-16.47 17.46,-30.87 -0.57,-3.13 -3.41,-10.16 -2.01,-13.57 1.84,-4.51 3.35,-7.59 2.75,-13.18 q -0.62,-5.68 -2.72,-11.12 a 0.7,0.71 46.8 0 0 -1.3,-0.04 c -3.26,7.2 -7.33,13.7 -14,18.04 -5.21,3.39 -13.77,6.01 -20.46,8.86 q -0.67,0.28 -0.54,-0.43 c 0.71,-4 11.33,-7.38 14.74,-8.8 q 8.78,-3.65 14.18,-11.44 c 4.87,-7.02 3.18,-14.48 1.14,-22.06 q -0.29,-1.07 -0.98,-1.53 a 0.69,0.68 31.5 0 0 -0.97,0.23 c -3.82,6.63 -8.52,10.26 -14.73,14.43 -4.72,3.16 -5.42,6.72 -6.9,11.81 a 0.89,0.89 0 0 1 -1.09,0.61 c -7.54,-2.07 -13.81,0.99 -21.25,-0.51 q -6.44,-1.3 -12.87,0.6 a 0.98,0.98 0 0 1 -1.25,-0.8 c -0.47,-3.39 -1.95,-8.16 -5.09,-10.39 -6.36,-4.54 -11.96,-8.59 -15.99,-15.52 a 0.92,0.93 38.6 0 0 -1.68,0.19 c -1.89,5.99 -3.65,12.67 -1.1,18.87 5.42,13.2 15.27,14.94 26.6,20.08 q 2.92,1.32 4.13,4.28 0.2,0.47 -0.27,0.26"
       id="path30"
       style="fill:none;stroke-width:2;stroke-linecap:butt" />
    <path
       stroke="#849498"
       vector-effect="non-scaling-stroke"
       d="m 374.95,148.66 c -10.46,-1.48 -24.8,-0.11 -30.37,10.63 -4.67,8.98 6.92,16.28 12.03,21.46 q 0.81,0.82 -0.33,0.97 c -24.8,3.28 -56.22,21.1 -56.04,49.66 0.07,11.16 5.17,20.56 8.87,30.41 q 0.87,2.31 1.64,-0.04 0.73,-2.22 2.54,-4.72 18.17,-24.93 48.74,-30.27 c 12.97,-2.27 26.24,-1.06 35.98,8.45 3.35,3.28 6.27,7.99 11.2,9.34 q 5.44,1.48 10.87,1.81 a 0.96,0.95 10.3 0 0 0.98,-0.67 q 0.71,-2.22 1.47,-4.44 c 1.14,-3.31 3.17,-6.47 4.36,-9.9 q 0.65,-1.88 -1.32,-2.12 c -3.76,-0.47 -7.94,-0.04 -10.41,-3.41 -5.45,-7.46 -9.38,-13.45 -16.92,-21.33 -1.93,-2.02 -6.1,-6.67 -3.57,-8.89 5.73,-5 12.71,-4.81 19.32,-1.82 7.68,3.47 12.04,7.03 21.14,4.08 a 2.33,2.33 0 0 1 2.81,1.19 q 2.2,4.45 -1.05,7.92 a 0.45,0.45 0 0 0 0.17,0.73 q 0.52,0.19 1.18,-0.1 15.19,-6.57 18.32,-21.97 0.38,-1.87 -1.5,-2.21 c -3.28,-0.6 -4.97,-1.54 -7.09,-4.37 q -8.4,-11.3 -21.73,-16.22 c -1.2,-0.44 -2.6,-1.41 -3.28,-2.55 -2.48,-4.13 -5.02,-6.13 -9.77,-8.04 -5.81,-2.35 -10.47,-5.55 -17.47,-9.96 -8.15,-5.12 -21.47,-8.66 -31.7,-11.37 -7.22,-1.92 -7.1,-4.13 -9.65,-9.83 a 1.6,1.6 0 0 0 -2.93,0 c -3.77,8.51 0.06,17.18 8.04,21.29 q 1.54,0.8 5.66,1.49 5.32,0.89 10.13,3.96 1.79,1.14 -0.32,0.84"
       id="path32"
       style="fill:none;stroke-width:2;stroke-linecap:butt" />
    <path
       stroke="#849498"
       vector-effect="non-scaling-stroke"
       d="m 272.77,254.24 c 13.38,17.25 22.96,36.79 28.12,57.18 a 0.32,0.32 0 0 0 0.63,-0.08 q 0.14,-15.07 -0.13,-19.09 c -1,-14.93 -5.58,-26.38 -10.23,-39.42 -4.07,-11.4 -5.72,-22.98 -4.36,-35.03 0.9,-7.96 2.23,-16.89 1.68,-23.8 q -0.5,-6.21 -0.53,-11.23 -0.01,-2.39 -1.22,-0.33 c -5.66,9.67 -14.01,16.58 -25.74,16.29 -13.76,-0.33 -18.38,-7.7 -26.37,-16.87 q -1.19,-1.37 -1.31,0.44 c -0.07,0.95 -0.01,1.84 -0.37,2.81 -1.4,3.78 -5.79,19.65 -2.72,22.41 q 21.04,18.99 42.55,46.72"
       id="path34"
       style="fill:none;stroke-width:2;stroke-linecap:butt" />
    <path
       stroke="#849498"
       vector-effect="non-scaling-stroke"
       d="m 100.74,216.72 a 0.26,0.26 0 0 1 -0.1,0.35 q -3.34,1.98 -6.64,3.92 -1.14,0.67 -1.21,1.31 -0.13,1.23 1.1,1.35 c 5.35,0.51 10.83,0.18 13.98,-4.8 4.23,-6.7 8.32,-13.7 13.4,-19.8 a 0.38,0.38 0 0 0 -0.06,-0.54 c -3.73,-2.89 -8.34,-0.87 -11.53,1.42 q -10.92,7.88 -19.46,11.79 c -8.79,4.02 -8.41,9.61 -11.31,17.44 a 1.21,1.21 0 0 1 -1.16,0.79 l -5.25,-0.11 q -0.06,0 -0.07,0.09 v 0.01 q -0.02,0.15 0.19,0.18 l 8.05,1.21 q 2.56,0.38 3.79,-1.89 c 1.13,-2.09 2.33,-4.88 4.13,-6.56 3.15,-2.94 7.91,-4.64 11.8,-6.48 q 0.14,-0.07 0.22,0.08 l 0.13,0.24"
       id="path36"
       style="fill:none;stroke-width:2;stroke-linecap:butt" />
    <path
       stroke="#849498"
       vector-effect="non-scaling-stroke"
       d="m 443.84,229.22 c -2.47,-9.15 -2.76,-12.95 -11.82,-17.97 q -9.24,-5.12 -17.97,-11.07 c -3.85,-2.62 -6.6,-3.88 -10.92,-2.89 a 1.34,1.34 0 0 0 -0.64,2.26 q 1.11,1.1 2.08,2.65 4.72,7.54 9.91,14.77 c 2.98,4.16 5.17,5.86 10.03,6.64 q 3.83,0.62 6.02,-1.82 0.33,-0.37 0.82,-0.26 c 4.27,0.99 5.73,5.47 7.71,8.88 q 0.24,0.41 0.72,0.46 4.38,0.47 8.67,-0.58 a 0.1603122,0.1603122 0 0 0 -0.02,-0.32 l -3.98,-0.26 q -0.48,-0.03 -0.61,-0.49"
       id="path38"
       style="fill:none;stroke-width:2;stroke-linecap:butt" />
    <path
       stroke="#849498"
       vector-effect="non-scaling-stroke"
       d="m 425.13,334.27 c 5.25,0.54 3.64,10.62 8.86,11.57 q 2.41,0.44 8.88,0.74 0.23,0.01 0.25,-0.22 v -0.01 a 0.24,0.24 0 0 0 -0.21,-0.26 c -1.96,-0.25 -6.81,-1.17 -6.85,-3.9 -0.12,-7.1 -1.07,-11.82 -7.07,-16.23 q -7.73,-5.67 -14.92,-12.04 -2.48,-2.19 -6.19,-2.7 a 1.71,1.71 0 0 0 -1.9,1.4 c -0.8,4.54 2.96,13.76 4.72,18.17 q 3.23,8.09 12.03,5.39 0.99,-0.3 1.63,-1.5 0.25,-0.46 0.77,-0.41"
       id="path40"
       style="fill:none;stroke-width:2;stroke-linecap:butt" />
    <path
       stroke="#849498"
       vector-effect="non-scaling-stroke"
       d="m 107.11,331.79 c -1.69,2 -5.13,2.88 -6.29,4.65 a 0.87,0.88 23.7 0 0 0.51,1.33 c 5.87,1.54 9.9,0.72 11.83,-5.53 q 2.57,-8.29 3.48,-17.39 a 1.36,1.36 0 0 0 -0.97,-1.44 c -4.11,-1.21 -6.93,0.85 -9.82,4.06 q -4.63,5.15 -10.1,9.36 c -7.81,6 -7.09,9.56 -8.97,18.35 a 0.65,0.66 3.1 0 1 -0.57,0.52 l -5.71,0.63 q -0.07,0.01 -0.07,0.15 v 0.01 q 0,0.15 0.15,0.16 c 5.11,0.39 11.36,1.17 13.11,-4.42 2.01,-6.4 8.07,-7.79 13.25,-10.65 q 0.66,-0.36 0.17,0.21"
       id="path42"
       style="fill:none;stroke-width:2;stroke-linecap:butt" />
    <path
       stroke="#849498"
       vector-effect="non-scaling-stroke"
       d="m 265.56,463.38 c 4.83,22.76 28.1,41.97 51.68,41.27 40.4,-1.19 62.57,-46.13 35.62,-77.51 -7.4,-8.61 -16.2,-15.79 -24.51,-23.5 -14.31,-13.27 -21.69,-29.07 -26.21,-48.31 q -0.07,-0.27 -0.35,-0.23 l -0.32,0.04 q -0.11,0.02 -0.1,0.13 0.59,9 -1.55,18.48 -3.72,16.46 -12.3,30.27 c -11.4,18.33 -26.94,35.96 -21.96,59.36"
       id="path44"
       style="fill:none;stroke-width:2;stroke-linecap:butt" />
    <path
       stroke="#849498"
       vector-effect="non-scaling-stroke"
       d="m 250.29,147.6 c -7.36,-3.81 -16.62,-8.42 -24.75,-9.07 q -0.44,-0.04 -0.4,0.4 c 0.54,7.22 3.3,14.78 12.11,14.4 q 7.45,-0.32 13.13,-4.05 a 0.97,0.98 41.9 0 0 -0.09,-1.68"
       id="path46"
       style="fill:none;stroke-width:2;stroke-linecap:butt" />
    <path
       stroke="#849498"
       vector-effect="non-scaling-stroke"
       d="m 272.17,149.28 c 11.71,5.38 24.57,8.11 25.32,-10.02 a 0.45,0.46 88.3 0 0 -0.5,-0.47 c -8.48,0.77 -17.09,4.91 -24.82,8.5 a 1.09,1.1 44.9 0 0 0,1.99"
       id="path48"
       style="fill:none;stroke-width:2;stroke-linecap:butt" />
    <path
       stroke="#849498"
       vector-effect="non-scaling-stroke"
       d="m 408.71,158.37 -12.32,-4.26 a 0.12,0.12 0 0 0 -0.15,0.07 l -0.01,0.03 a 5.34,1.69 19.1 0 0 4.49,3.34 l 2.46,0.85 a 5.34,1.69 19.1 0 0 5.6,0.16 l 0.01,-0.03 a 0.12,0.12 0 0 0 -0.08,-0.16"
       id="path50"
       style="fill:none;stroke-width:2;stroke-linecap:butt" />
    <path
       stroke="#849498"
       vector-effect="non-scaling-stroke"
       d="m 384.27,162.53 q -9.93,-5.82 -21.03,-2.34 -2.5,0.78 -3.7,3.1 l -0.57,1.11 a 1.2,1.2 0 0 0 1.34,1.72 q 11.67,-2.76 23.66,-2.53 2.18,0.04 0.3,-1.06"
       id="path52"
       style="fill:none;stroke-width:2;stroke-linecap:butt" />
    <path
       stroke="#849498"
       vector-effect="non-scaling-stroke"
       d="m 416.95,173.22 q -1.64,-0.92 -0.95,0.83 c 2.87,7.29 8.14,14.4 17.15,9.26 a 0.55,0.55 0 0 0 0,-0.95 l -16.2,-9.14"
       id="path54"
       style="fill:none;stroke-width:2;stroke-linecap:butt" />
    <path
       stroke="#849498"
       vector-effect="non-scaling-stroke"
       d="m 429.61,220.06 -5.28,-3.25 a 0.14,0.14 0 0 0 -0.19,0.04 l -0.01,0.02 a 3.11,1.1 31.7 0 0 2.07,2.57 l 0.22,0.13 a 3.11,1.1 31.7 0 0 3.22,0.7 l 0.01,-0.01 a 0.14,0.14 0 0 0 -0.04,-0.2"
       id="path56"
       style="fill:none;stroke-width:2;stroke-linecap:butt" />
    <path
       stroke="#849498"
       vector-effect="non-scaling-stroke"
       d="m 420.98,332.06 q -1.41,-0.81 -2.98,-1.28 -0.27,-0.08 -0.34,0.19 l -0.07,0.27 a 0.34,0.34 0 0 0 0.15,0.37 q 1.42,0.84 3.06,1.02 1.48,0.17 0.18,-0.57"
       id="path58"
       style="fill:none;stroke-width:2;stroke-linecap:butt" />
    <path
       stroke="#849498"
       vector-effect="non-scaling-stroke"
       d="m 325.2725,471.7108 a 23.46,21.77 55.1 0 0 4.4322,-31.6964 23.46,21.77 55.1 0 0 -31.2772,-6.7852 23.46,21.77 55.1 0 0 -4.4322,31.6964 23.46,21.77 55.1 0 0 31.2772,6.7852"
       id="path60"
       style="fill:none;stroke-width:2;stroke-linecap:butt" />
    <path
       fill="#082830"
       d="m 473.58,407.06 c -22.37,45.92 -54.22,86.71 -94.25,117.81 -20.72,16.10667 -42.84,30.05 -66.36,41.83 -13.59333,6.80667 -29.08667,13.8 -46.48,20.98 -3.2,1.32 -5.1,2.41 -8.6,1.16 -7.41333,-2.66 -15.54,-6.01333 -24.38,-10.06 C 169.06,549.27 110.58,506.94 71.43,446.82 41.67,401.11 21.27,347.75 17.79,293 c -0.346667,-5.5 -0.596667,-11 -0.75,-16.5 -0.826667,-30.73333 -0.213333,-57.68 1.84,-80.84 1.833333,-20.64667 3.686667,-41.30667 5.56,-61.98 0.02348,-0.30695 0.239459,-0.56693 0.54,-0.65 2.34,-0.62 4.68,-1.4 7.02,-2.34 24.42,-9.78 48.45,-20.54 71.88,-32.52 47.27333,-24.166667 93.98333,-49.383333 140.13,-75.65 5.53333,-3.146667 10.96333,-6.323333 16.29,-9.53 0.36667,-0.22 0.73,-0.223333 1.09,-0.01 31.28,18.27 62.83,35.45 94.43,52.93 16.12,8.913333 36.72,19.686667 61.8,32.32 26.09333,13.14 52.76333,24.87667 80.01,35.21 0.25747,0.0985 0.43609,0.33537 0.46,0.61 1.29333,14.77333 2.63667,29.59333 4.03,44.46 3.13333,33.44667 4.13667,66.94667 3.01,100.5 -1.52,44.99 -11.64,87.19 -31.55,128.05 z M 87.91,325.89 c 0.104135,0.32154 -0.249745,0.59821 -0.55,0.43 -3.51,-2.02 -7.77,-3.34 -10.69,-5.22 -5.986667,-3.84 -10.36,-9.29 -13.12,-16.35 -0.266667,-0.68667 -0.07333,-1.2 0.58,-1.54 5.07,-2.66 7.73,-7.66 10.72,-12.36 1.8,-2.83333 4.736667,-5.47 8.81,-7.91 4.32,-2.58667 7.056667,-4.61 8.21,-6.07 1.91,-2.41 5.79,-9.07 8.34,-10.23 4.70667,-2.12667 9.25333,-4.54 13.64,-7.24 4.7,-2.89333 8.03,-4.63667 9.99,-5.23 5.53333,-1.68 11.03,-1.44333 16.49,0.71 7.79333,3.06667 15.85333,5.52667 24.18,7.38 0.43999,0.10208 0.58431,0.65628 0.25,0.96 -7.42,6.54 -14.34,7.8 -23.6,10.41 -1.60667,0.46 -1.57333,0.66333 0.1,0.61 1.19333,-0.0333 2.69333,0.02 4.5,0.16 7.65333,0.61333 15.14,-0.17667 22.46,-2.37 19.37,-5.81 38.34,2.62 40.2,24.5 0.0867,0.98667 -0.24,1.15333 -0.98,0.5 -5.99,-5.31 -19.68,-5.73 -27.46,-4.69 -1.48,0.19333 -1.47667,0.37333 0.01,0.54 7.07,0.79 16.55,9.11 21.02,14.35 12.66,14.81 11.43,37.33 4.99,54.39 -8.71,23.12 -27.07,42.17 -47.62,55.3 -16.14,10.32 -33.71,19.77 -47.98,32.62 -0.22667,0.2 -0.24333,0.41333 -0.05,0.64 l 12.45,14.97 c 0.13777,0.16186 0.39216,0.1469 0.51,-0.03 9.97,-14.91 22.5,-23.79 38.91,-34.36 22.16,-14.25 44.36,-31.38 57.53,-54.79 22.07,-39.24 11.51,-86.99 -15.44,-121.25 -11.29,-14.34 -29.03,-25.71 -47.37,-28.04 -9.46,-1.21 -21.91,-0.67 -29.38,5.87 -3.61,3.17 -7.44,8.62 -12.15,10.89 -4.10667,1.97333 -8.50333,2.95667 -13.19,2.95 -0.32667,0 -0.53667,-0.15667 -0.63,-0.47 -1.27333,-4.23333 -2.983333,-8.28667 -5.13,-12.16 -3.18,-5.71 4.33,-5.24 7.17,-5.28 2.16,-0.04 3.73,-0.58 4.85,-2.28 5.90667,-8.98 12.05,-16.98333 18.43,-24.01 1.7,-1.88 3.03,-4.93 0.52,-6.89 -3.91333,-3.05333 -8.21,-4.20667 -12.89,-3.46 -7.37,1.18 -13.63,8.1 -21.04,6.94 -1.953333,-0.30667 -4.15,-0.59 -6.59,-0.85 -0.986897,-0.10451 -1.90207,0.53398 -2.15,1.5 -0.646667,2.56 -0.146667,4.84 1.5,6.84 0.475113,0.58245 0.108322,1.45931 -0.64,1.53 -0.68,0.0667 -1.45,-0.15333 -2.31,-0.66 -3.61,-2.14 -7.52,-3.8 -10.2,-6.91 -3.42,-3.99 -7.09,-10.32 -7.11,-15.74 -0.0056,-0.39766 0.312339,-0.72452 0.71,-0.73 4.52,-0.05 6.56,-1.85 9.31,-5.66 5.42,-7.53 11.71,-11.53 20.2,-14.94 3.04,-1.22 4.08,-2.79 5.82,-5.37 2.42,-3.58 6.11,-4.59 9.92,-6.25 8.11,-3.55 15.11,-9.51 23.15,-12.97 6.71333,-2.88667 13.64333,-5.15333 20.79,-6.8 5.95,-1.37 11.45,-3.55 11.9,-10.17 0.0649,-0.97668 1.05364,-1.61408 1.97,-1.27 1,0.38 1.87,1.2 2.22,2.29 1.76,5.39333 1.02,10.11333 -2.22,14.16 -2.39,2.99 -5.98,6.63 -9.75,6.81 -4.64667,0.23333 -8.54667,1.36333 -11.7,3.39 -2.9,1.86667 -2.67,2.40667 0.69,1.62 11.62,-2.73 23.77,1.29 29.84,11.73 4.62,7.95 -7.99,16.28 -12.45,20.87 -0.18662,0.20309 -0.0924,0.5301 0.17,0.59 19.44,4.13 34.56,14.15 48.14,28.24 37.41,38.81 75.89,93.71 62.49,150.23 -2.64,11.12667 -7.12667,22.11667 -13.46,32.97 -6.43,11.01 -13.83,21.63 -17.85,33.85 -4.95,15.01 -0.69,29.97 5.79,44.02 3.91333,8.46667 7.44667,15.72667 10.6,21.78 0.15333,0.28667 0.0933,0.34333 -0.18,0.17 -3.86,-2.48 -7.77,-5.44 -11.53,-7.48 -10.77,-5.84 -21.82,-9.72 -33.28,-13.92 -0.38,-0.13333 -0.47333,-0.0233 -0.28,0.33 2.11333,3.82 4.43333,7.09333 6.96,9.82 20.64,22.23 48.35,36.09 78.78,39.45 18.99333,2.1 35.85,-2.38667 50.57,-13.46 17.72,-13.32 34.48,-28.93 49.42,-45.31 1.88,-2.06667 2.9,-3.89333 3.06,-5.48 3.09,-30.31 -21.79,-40.47 -43.65,-51.13 -26.96,-13.15 -47.51,-39.45 -46.78,-70.52 0.21,-8.9 1.94,-17.79 1.9,-26.39 -0.06,-12.51 -1.14,-24.83 9.55,-32.99 4.62667,-3.52667 10.02667,-5.50333 16.2,-5.93 5.76667,-0.39333 9.99333,-0.14667 12.68,0.74 7.77333,2.58667 15.05,3.53333 21.83,2.84 2.83333,-0.29333 2.87,-0.79333 0.11,-1.5 -7.61,-1.96 -13.41,-3.91 -18.79,-9.65 -0.29333,-0.31333 -0.23,-0.51667 0.19,-0.61 8.57,-1.87 16.47,-4.72 24.79,-7.51 13.15,-4.41 20.86,1.21 31.43,7.54 2.31,1.38 6.64,2.97 8.94,5.41 1.99,2.1 5.81,8.92 9.94,11.33 4.19,2.45 11.03,6.58 13.33,10.15 3.63,5.62 6.28,9.94 11.79,14.02 0.5,0.36667 0.63667,0.83667 0.41,1.41 -4.05333,10.35333 -11.45,17.03667 -22.19,20.05 -0.36832,0.10362 -0.73654,-0.17132 -0.75,-0.56 -0.007,-0.43333 0.12333,-0.9 0.39,-1.4 1.92,-3.56 2.68,-7.95 -2.83,-8.49 -3.72,-0.37 -8.17,-0.31 -11.46,-1.89 -3.39,-1.62 -7.58,-4.79 -11.43,-5.49 -3.06,-0.56 -12.65,0.13 -12.65,5.08 0.007,1.71333 0.35333,3.38 1.04,5 2.96,6.98 5.91667,13.96333 8.87,20.95 1.89,4.47 4.2,4.11 8.42,4.69 2.14,0.29 3.41,1.35 2.07,3.55 -2.44667,4.02 -4.21333,8.25333 -5.3,12.7 -0.11991,0.50937 -0.60826,0.84074 -1.12,0.76 -3.67333,-0.53333 -7.27667,-1.39333 -10.81,-2.58 -4.72,-1.58 -7.94,-6.58 -10.38,-11.07 -6.59,-12.14 -12.87,-23.42 -21.97,-33.98 -0.27109,-0.31807 -0.72106,-0.41625 -1.1,-0.24 -11.45,5.3 -20.12,16.18 -19.46,28.96 0.93,17.86 15.72,28.93 29.87,37.83 17.59,11.05 43.36,27.27 48.91,48.84 0.0933,0.35333 0.24333,0.38 0.45,0.08 31.21,-45.62 46.99,-99.85 48.36,-154.99 0.64667,-26.12 -0.12,-52.20667 -2.3,-78.26 -1.04,-12.41333 -2.04,-24.77667 -3,-37.09 -0.0467,-0.64 -0.36333,-1.09667 -0.95,-1.37 -12.10667,-5.62 -24.27667,-11.17 -36.51,-16.65 -13.6,-6.09333 -34.88333,-16.83 -63.85,-32.21 -36.34667,-19.293333 -72.56333,-38.796667 -108.65,-58.51 -0.49216,-0.268621 -1.08444,-0.268621 -1.57,0 -33.84667,18.52 -67.87,36.916667 -102.07,55.19 -39.47,21.08 -69.48,35.31 -105.07,51.31 -0.736881,0.33391 -1.239827,1.03118 -1.32,1.83 -4.64,48.4 -8.88,97.99 -3.44,146.5 0.766667,6.82667 1.806667,13.41 3.12,19.75 9.253333,44.72667 27.633333,85.48 55.14,122.26 0.54,0.72 4.27,4.78 -1.16798,1.44113 -0.14,-0.66667 -15.343292,-11.80599 -15.343292,-11.80599 C 72.76408,416.92291 111.35,400.24 131.24,386.62 c 18.86,-12.92 49.56,-26.15 41.18,-55.61 -2.27333,-7.99333 -7.48333,-14.09 -15.63,-18.29 -0.71333,-0.36667 -1.28333,-0.70667 -1.71,-1.02 -0.30574,-0.23068 -0.73372,-0.20526 -1.01,0.06 -5.4,5.27 -9.11,11.08 -13,17.53 -3.53,5.84 -12.31,25.37 -16.87,27.18 -4.31333,1.72 -8.80333,2.74667 -13.47,3.08 -0.33333,0.02 -0.54333,-0.13 -0.63,-0.45 -1.06,-3.86667 -2.69333,-7.47333 -4.9,-10.82 -0.92,-1.39333 -0.97667,-2.7 -0.17,-3.92 0.13429,-0.19778 0.34404,-0.33159 0.58,-0.37 l 6.99,-1.2 c 0.31333,-0.0533 0.55333,-0.21333 0.72,-0.48 1.51333,-2.47333 2.83667,-5.31667 3.97,-8.53 2.52667,-7.19333 4.45333,-13.54667 5.78,-19.06 2.03,-8.49 -9.03,-8.19 -14.08,-6.48 -4.47,1.51 -8.65,5.35 -13.82,6.17 -1.08,0.17333 -3.27,0.40667 -6.57,0.7 -7.65,0.69 -1.65,7.57 -0.69,10.78 z m 39.73,-170.5 -0.49,-1.37 c -0.0475,-0.14036 -0.19922,-0.21623 -0.34,-0.17 l -2.02,0.72 c -5.9403,2.10353 -10.63663,4.13353 -10.48,4.53 l 0.15,0.43 c 0.15306,0.39653 5.07568,-0.9818 11,-3.08 l 2.01,-0.71 c 0.14569,-0.0473 0.22288,-0.20623 0.17,-0.35 z m 13.98,5.55 c -1.33333,0.5 -2.28,0.94333 -2.84,1.33 -0.93333,0.64667 -0.83,0.98333 0.31,1.01 8.31333,0.18 16.54333,1.11667 24.69,2.81 0.2184,0.0426 0.42962,-0.10117 0.47,-0.32 0.48,-2.93 -2.92,-4.94 -5.28,-5.59 -5.88667,-1.62667 -11.67,-1.37333 -17.35,0.76 z m -34.76,12.45 c -6.01333,2.27333 -11.596667,5.34667 -16.75,9.22 -0.438082,0.3242 -0.353985,1.00258 0.15,1.21 9.92,4.1 14.08,-1.9 16.87,-10.17 0.0506,-0.16459 -0.10744,-0.31682 -0.27,-0.26 z m 288.24,91.69 c 6.62,0.78667 12.71333,2.98667 18.28,6.6 0.21333,0.14 0.39333,0.10667 0.54,-0.1 l 0.21,-0.28 c 0.0933,-0.13333 0.0767,-0.25333 -0.05,-0.36 -6,-4.85 -12.81,-8.81 -20.91,-7.56 -2.35333,0.36667 -2.37667,0.84333 -0.07,1.43 0.1,0.0267 0.76667,0.11667 2,0.27 z m -285.9,7.69 c 7.06,-3.71 12.9,-6.54 21.62,-7.94 0.1,-0.0133 0.18333,-0.03 0.25,-0.05 0.42078,-0.11231 0.37451,-0.72145 -0.06,-0.79 -8.59,-1.14 -15.61,2.12 -21.97,7.55 -0.58667,0.5 -0.69667,0.89667 -0.33,1.19 0.14097,0.10926 0.33317,0.12495 0.49,0.04 z m 312.51,14.88 c 1.1,3.52 2.7,6.73 5.61,10.48 1.22773,1.57854 3.23453,2.33881 5.2,1.97 l 3.76,-0.71 c 2.14,-0.4 2.37667,-1.29667 0.71,-2.69 -4.49333,-3.76667 -9.3,-7.02333 -14.42,-9.77 -0.87333,-0.46667 -1.16,-0.22667 -0.86,0.72 z M 85.79,300.17 c 10.52,4.05 12.7,-3.53 15.68,-11.09 0.13036,-0.31813 -0.17482,-0.64162 -0.5,-0.53 -5.85,1.95 -10.68,6.61 -15.38,10.11 -0.846667,0.62667 -0.78,1.13 0.2,1.51 z"
       id="path72"
       sodipodi:nodetypes="ccccccccccccccccccccccccccccccccccccccccccccccccccccccccccccccccccccccccccccccccccccccccccccccccccccccccccccccccccccccccccccccccccccccccccccccccccccccccccccccccccccccccccccccccccccccccccccccccccccccccccccccccccccccccccccccccccccc" />
    <path
       fill="#082830"
       d="   M 249.54 130.86   Q 248.33 127.90 245.41 126.58   C 234.08 121.44 224.23 119.70 218.81 106.50   C 216.26 100.30 218.02 93.62 219.91 87.63   A 0.93 0.92 -51.4 0 1 221.59 87.44   C 225.62 94.37 231.22 98.42 237.58 102.96   C 240.72 105.19 242.20 109.96 242.67 113.35   A 0.98 0.98 0.0 0 0 243.92 114.15   Q 250.35 112.25 256.79 113.55   C 264.23 115.05 270.50 111.99 278.04 114.06   A 0.89 0.89 0.0 0 0 279.13 113.45   C 280.61 108.36 281.31 104.80 286.03 101.64   C 292.24 97.47 296.94 93.84 300.76 87.21   A 0.69 0.68 31.5 0 1 301.73 86.98   Q 302.42 87.44 302.71 88.51   C 304.75 96.09 306.44 103.55 301.57 110.57   Q 296.17 118.36 287.39 122.01   C 283.98 123.43 273.36 126.81 272.65 130.81   Q 272.52 131.52 273.19 131.24   C 279.88 128.39 288.44 125.77 293.65 122.38   C 300.32 118.04 304.39 111.54 307.65 104.34   A 0.71 0.70 -43.2 0 1 308.95 104.38   Q 311.05 109.82 311.67 115.50   C 312.27 121.09 310.76 124.17 308.92 128.68   C 307.52 132.09 310.36 139.12 310.93 142.25   C 313.54 156.65 307.68 168.87 293.47 173.12   Q 289.52 174.30 285.84 175.25   A 3.22 3.21 -79.2 0 0 284.08 176.45   C 281.48 180.03 279.69 184.18 276.34 187.55   C 271.07 192.86 263.93 193.74 256.49 192.80   C 247.68 191.69 242.39 184.22 238.99 177.00   Q 238.39 175.72 236.26 175.18   C 232.20 174.16 227.68 173.45 224.18 171.64   C 209.30 163.93 208.77 147.61 213.48 133.25   C 213.90 131.98 213.65 130.13 212.99 128.76   C 208.92 120.15 210.14 112.64 213.27 104.02   Q 213.55 103.22 214.26 103.68   Q 214.53 103.86 214.80 104.41   C 219.26 113.35 225.32 121.74 234.74 125.27   Q 244.90 129.08 249.27 131.12   Q 249.74 131.33 249.54 130.86   Z   M 250.29 147.60   C 242.93 143.79 233.67 139.18 225.54 138.53   Q 225.10 138.49 225.14 138.93   C 225.68 146.15 228.44 153.71 237.25 153.33   Q 244.70 153.01 250.38 149.28   A 0.98 0.97 -48.1 0 0 250.29 147.60   Z   M 272.17 149.28   C 283.88 154.66 296.74 157.39 297.49 139.26   A 0.46 0.45 -1.7 0 0 296.99 138.79   C 288.51 139.56 279.90 143.70 272.17 147.29   A 1.10 1.09 -45.1 0 0 272.17 149.28   Z"
       id="path76" />
    <path
       fill="#082830"
       d="   M 374.95 148.66   Q 377.06 148.96 375.27 147.82   Q 370.46 144.75 365.14 143.86   Q 361.02 143.17 359.48 142.37   C 351.50 138.26 347.67 129.59 351.44 121.08   A 1.60 1.60 0.0 0 1 354.37 121.08   C 356.92 126.78 356.80 128.99 364.02 130.91   C 374.25 133.62 387.57 137.16 395.72 142.28   C 402.72 146.69 407.38 149.89 413.19 152.24   C 417.94 154.15 420.48 156.15 422.96 160.28   C 423.64 161.42 425.04 162.39 426.24 162.83   Q 439.57 167.75 447.97 179.05   C 450.09 181.88 451.78 182.82 455.06 183.42   Q 456.94 183.76 456.56 185.63   Q 453.43 201.03 438.24 207.60   Q 437.58 207.89 437.06 207.70   A 0.45 0.45 0.0 0 1 436.89 206.97   Q 440.14 203.50 437.94 199.05   A 2.33 2.33 0.0 0 0 435.13 197.86   C 426.03 200.81 421.67 197.25 413.99 193.78   C 407.38 190.79 400.40 190.60 394.67 195.60   C 392.14 197.82 396.31 202.47 398.24 204.49   C 405.78 212.37 409.71 218.36 415.16 225.82   C 417.63 229.19 421.81 228.76 425.57 229.23   Q 427.54 229.47 426.89 231.35   C 425.70 234.78 423.67 237.94 422.53 241.25   Q 421.77 243.47 421.06 245.69   A 0.96 0.95 10.3 0 1 420.08 246.36   Q 414.65 246.03 409.21 244.55   C 404.28 243.20 401.36 238.49 398.01 235.21   C 388.27 225.70 375.00 224.49 362.03 226.76   Q 331.46 232.10 313.29 257.03   Q 311.48 259.53 310.75 261.75   Q 309.98 264.10 309.11 261.79   C 305.41 251.94 300.31 242.54 300.24 231.38   C 300.06 202.82 331.48 185.00 356.28 181.72   Q 357.42 181.57 356.61 180.75   C 351.50 175.57 339.91 168.27 344.58 159.29   C 350.15 148.55 364.49 147.18 374.95 148.66   Z   M 408.71 158.37   L 396.39 154.11   A 0.12 0.12 0.0 0 0 396.24 154.18   L 396.23 154.21   A 5.34 1.69 19.1 0 0 400.72 157.55   L 403.18 158.40   A 5.34 1.69 19.1 0 0 408.78 158.56   L 408.79 158.53   A 0.12 0.12 0.0 0 0 408.71 158.37   Z   M 384.27 162.53   Q 374.34 156.71 363.24 160.19   Q 360.74 160.97 359.54 163.29   L 358.97 164.40   A 1.20 1.20 0.0 0 0 360.31 166.12   Q 371.98 163.36 383.97 163.59   Q 386.15 163.63 384.27 162.53   Z   M 416.95 173.22   Q 415.31 172.30 416.00 174.05   C 418.87 181.34 424.14 188.45 433.15 183.31   A 0.55 0.55 0.0 0 0 433.15 182.36   L 416.95 173.22   Z"
       id="path78" />
    <path
       fill="#082830"
       d="   M 300.89 311.42   C 295.73 291.03 286.15 271.49 272.77 254.24   Q 251.26 226.51 230.22 207.52   C 227.15 204.76 231.54 188.89 232.94 185.11   C 233.30 184.14 233.24 183.25 233.31 182.30   Q 233.43 180.49 234.62 181.86   C 242.61 191.03 247.23 198.40 260.99 198.73   C 272.72 199.02 281.07 192.11 286.73 182.44   Q 287.94 180.38 287.95 182.77   Q 287.98 187.79 288.48 194.00   C 289.03 200.91 287.70 209.84 286.80 217.80   C 285.44 229.85 287.09 241.43 291.16 252.83   C 295.81 265.87 300.39 277.32 301.39 292.25   Q 301.66 296.27 301.52 311.34   A 0.32 0.32 0.0 0 1 300.89 311.42   Z"
       id="path96" />
    <path
       fill="#082830"
       d="   M 100.39 216.40   C 96.50 218.24 91.74 219.94 88.59 222.88   C 86.79 224.56 85.59 227.35 84.46 229.44   Q 83.23 231.71 80.67 231.33   L 72.62 230.12   Q 72.41 230.09 72.43 229.94   L 72.43 229.93   Q 72.44 229.84 72.50 229.84   L 77.75 229.95   A 1.21 1.21 0.0 0 0 78.91 229.16   C 81.81 221.33 81.43 215.74 90.22 211.72   Q 98.76 207.81 109.68 199.93   C 112.87 197.64 117.48 195.62 121.21 198.51   A 0.38 0.38 0.0 0 1 121.27 199.05   C 116.19 205.15 112.10 212.15 107.87 218.85   C 104.72 223.83 99.24 224.16 93.89 223.65   Q 92.66 223.53 92.79 222.30   Q 92.86 221.66 94.00 220.99   Q 97.30 219.05 100.64 217.07   A 0.26 0.26 0.0 0 0 100.74 216.72   L 100.61 216.48   Q 100.53 216.33 100.39 216.40   Z"
       id="path98" />
    <path
       fill="#082830"
       d="   M 444.45 229.71   L 448.43 229.97   A 0.16 0.16 0.0 0 1 448.45 230.29   Q 444.16 231.34 439.78 230.87   Q 439.30 230.82 439.06 230.41   C 437.08 227.00 435.62 222.52 431.35 221.53   Q 430.86 221.42 430.53 221.79   Q 428.34 224.23 424.51 223.61   C 419.65 222.83 417.46 221.13 414.48 216.97   Q 409.29 209.74 404.57 202.20   Q 403.60 200.65 402.49 199.55   A 1.34 1.34 0.0 0 1 403.13 197.29   C 407.45 196.30 410.20 197.56 414.05 200.18   Q 422.78 206.13 432.02 211.25   C 441.08 216.27 441.37 220.07 443.84 229.22   Q 443.97 229.68 444.45 229.71   Z   M 429.61 220.06   L 424.33 216.81   A 0.14 0.14 0.0 0 0 424.14 216.85   L 424.13 216.87   A 3.11 1.10 31.7 0 0 426.20 219.44   L 426.42 219.57   A 3.11 1.10 31.7 0 0 429.64 220.27   L 429.65 220.26   A 0.14 0.14 0.0 0 0 429.61 220.06   Z"
       id="path100" />
    <path
       fill="#082830"
       d="   M 424.36 334.68   Q 423.72 335.88 422.73 336.18   Q 413.93 338.88 410.70 330.79   C 408.94 326.38 405.18 317.16 405.98 312.62   A 1.71 1.71 0.0 0 1 407.88 311.22   Q 411.59 311.73 414.07 313.92   Q 421.26 320.29 428.99 325.96   C 434.99 330.37 435.94 335.09 436.06 342.19   C 436.10 344.92 440.95 345.84 442.91 346.09   A 0.24 0.24 0.0 0 1 443.12 346.35   L 443.12 346.36   Q 443.10 346.59 442.87 346.58   Q 436.40 346.28 433.99 345.84   C 428.77 344.89 430.38 334.81 425.13 334.27   Q 424.61 334.22 424.36 334.68   Z   M 420.98 332.06   Q 419.57 331.25 418.00 330.78   Q 417.73 330.70 417.66 330.97   L 417.59 331.24   A 0.34 0.34 0.0 0 0 417.74 331.61   Q 419.16 332.45 420.80 332.63   Q 422.28 332.80 420.98 332.06   Z"
       id="path112" />
    <path
       fill="#082830"
       d="   M 106.94 331.58   C 101.76 334.44 95.70 335.83 93.69 342.23   C 91.94 347.82 85.69 347.04 80.58 346.65   Q 80.43 346.64 80.43 346.49   L 80.43 346.48   Q 80.43 346.34 80.50 346.33   L 86.21 345.70   A 0.66 0.65 -86.9 0 0 86.78 345.18   C 88.66 336.39 87.94 332.83 95.75 326.83   Q 101.22 322.62 105.85 317.47   C 108.74 314.26 111.56 312.20 115.67 313.41   A 1.36 1.36 0.0 0 1 116.64 314.85   Q 115.73 323.95 113.16 332.24   C 111.23 338.49 107.20 339.31 101.33 337.77   A 0.88 0.87 -66.3 0 1 100.82 336.44   C 101.98 334.67 105.42 333.79 107.11 331.79   Q 107.60 331.22 106.94 331.58   Z"
       id="path114" />
    <path
       fill="#082830"
       d="   M 317.24 504.65   C 293.66 505.35 270.39 486.14 265.56 463.38   C 260.58 439.98 276.12 422.35 287.52 404.02   Q 296.10 390.21 299.82 373.75   Q 301.96 364.27 301.37 355.27   Q 301.36 355.16 301.47 355.14   L 301.79 355.10   Q 302.07 355.06 302.14 355.33   C 306.66 374.57 314.04 390.37 328.35 403.64   C 336.66 411.35 345.46 418.53 352.86 427.14   C 379.81 458.52 357.64 503.46 317.24 504.65   Z   M 325.2725 471.7108   A 23.46 21.77 55.1 0 0 329.7047 440.0144   A 23.46 21.77 55.1 0 0 298.4275 433.2292   A 23.46 21.77 55.1 0 0 293.9953 464.9256   A 23.46 21.77 55.1 0 0 325.2725 471.7108   Z"
       id="path118" />
  </g>
  <path
     fill="#082830"
     d="   M 160.84 654.52   A 0.31 0.31 0.0 0 0 161.39 654.52   L 181.17 617.16   Q 181.40 616.73 181.89 616.73   L 208.45 616.73   A 0.45 0.45 0.0 0 1 208.84 617.39   Q 193.50 644.93 178.70 672.46   C 176.84 675.91 174.16 680.25 174.19 684.25   Q 174.31 698.63 174.20 712.81   Q 174.20 713.26 173.75 713.26   L 148.73 713.29   Q 148.18 713.29 148.17 712.74   Q 147.95 699.56 148.07 686.47   C 148.11 682.03 146.71 678.96 144.71 675.27   Q 129.03 646.30 112.80 617.52   A 0.52 0.52 0.0 0 1 113.25 616.75   L 139.80 616.67   A 1.66 1.63 -13.7 0 1 141.26 617.54   L 160.84 654.52   Z"
     id="path122" />
  <path
     fill="#082830"
     d="   M 338.51 681.28   L 338.43 712.76   Q 338.43 713.20 337.99 713.20   L 313.48 713.31   Q 312.80 713.31 312.80 712.64   L 312.78 617.04   A 0.31 0.31 0.0 0 1 313.09 616.73   Q 335.96 616.66 358.75 616.72   Q 363.86 616.73 370.72 618.65   C 390.58 624.19 398.18 648.13 391.26 665.76   C 389.79 669.50 384.21 678.19 379.74 679.45   A 1.41 1.35 -20.3 0 0 378.82 681.34   L 393.84 712.77   A 0.34 0.33 77.1 0 1 393.54 713.25   L 367.21 713.28   Q 366.81 713.28 366.64 712.92   L 351.73 681.27   Q 351.49 680.76 350.94 680.77   L 338.97 680.82   Q 338.52 680.82 338.51 681.28   Z   M 356.50 656.75   C 369.81 656.65 366.22 642.85 356.24 642.27   Q 351.23 641.98 339.19 642.14   Q 338.77 642.15 338.77 642.57   L 338.73 656.21   Q 338.73 656.70 339.23 656.71   Q 347.87 656.82 356.50 656.75   Z"
     id="path124" />
  <path
     fill="#082830"
     d="   M 433.49 696.03   L 428.58 712.92   A 0.49 0.48 7.5 0 1 428.13 713.26   L 402.73 713.48   A 0.45 0.45 0.0 0 1 402.28 712.92   C 410.57 680.84 420.76 649.12 430.05 617.30   Q 430.20 616.78 430.75 616.78   L 466.45 616.54   A 1.36 1.36 0.0 0 1 467.78 617.55   L 493.09 712.40   Q 493.32 713.25 492.43 713.25   L 467.43 713.26   A 0.77 0.76 -7.4 0 1 466.69 712.70   L 461.87 695.73   Q 461.73 695.22 461.19 695.22   L 434.22 695.48   Q 433.65 695.49 433.49 696.03   Z   M 448.02 643.08   L 439.75 672.04   Q 439.54 672.77 440.30 672.77   L 455.84 672.67   Q 456.35 672.67 456.22 672.18   L 448.29 643.08   Q 448.15 642.60 448.02 643.08   Z"
     id="path126" />
  <path
     fill="#082830"
     d="   M 50.91 679.03   L 50.88 712.80   Q 50.88 713.23 50.45 713.24   L 25.84 713.35   A 0.36 0.35 89.2 0 1 25.48 712.99   L 25.40 617.01   Q 25.40 616.67 25.74 616.67   L 50.48 616.73   Q 50.98 616.73 50.98 617.23   L 50.95 651.21   Q 50.95 651.73 51.46 651.73   L 79.20 651.78   Q 80.18 651.78 80.18 650.80   L 80.06 617.94   A 0.65 0.63 -64.7 0 0 79.93 617.55   Q 79.81 617.38 79.76 617.15   A 0.37 0.36 -5.2 0 1 80.12 616.72   L 105.44 616.69   A 0.30 0.30 0.0 0 1 105.74 616.99   L 105.69 712.74   Q 105.69 713.18 105.26 713.18   L 80.79 713.33   Q 80.24 713.34 80.23 712.79   L 79.94 678.72   Q 79.93 678.25 79.47 678.25   L 51.47 678.46   Q 50.91 678.46 50.91 679.03   Z"
     id="path128" />
  <path
     fill="#082830"
     d="   M 215.41 617.20   A 0.36 0.36 0.0 0 1 215.77 616.84   L 259.38 616.61   A 37.09 36.00 -0.3 0 1 296.66 652.42   L 296.78 676.88   A 37.09 36.00 -0.3 0 1 259.88 713.07   L 216.27 713.30   A 0.36 0.36 0.0 0 1 215.91 712.94   L 215.41 617.20   Z   M 270.11 655.93   C 268.91 640.62 251.92 642.36 241.48 642.56   Q 240.79 642.57 240.80 643.25   L 240.86 686.97   A 0.35 0.35 0.0 0 0 241.22 687.32   Q 247.83 687.23 254.50 687.16   C 261.85 687.08 268.70 685.42 270.14 677.26   Q 271.28 670.79 270.11 655.93   Z"
     id="path130" />
</svg>
